<?xml version="1.0" standalone="no"?>
<!DOCTYPE svg PUBLIC "-//W3C//DTD SVG 20010904//EN"
 "http://www.w3.org/TR/2001/REC-SVG-20010904/DTD/svg10.dtd">
<svg version="1.0" xmlns="http://www.w3.org/2000/svg"
 width="512.000000pt" height="512.000000pt" viewBox="0 0 512.000000 512.000000"
 preserveAspectRatio="xMidYMid meet">
<metadata>
Created by potrace 1.11, written by Peter Selinger 2001-2013
</metadata>
<g transform="translate(0.000000,512.000000) scale(0.100000,-0.100000)"
fill="#000000" stroke="none">
<path d="M1894 4220 c-242 -63 -432 -245 -514 -490 -36 -109 -36 -217 0 -544
17 -158 29 -295 26 -302 -3 -8 -13 -14 -21 -14 -37 0 -125 -53 -174 -105 -77
-82 -96 -129 -96 -245 0 -82 4 -103 27 -152 50 -107 168 -193 280 -205 l54 -5
27 -78 c30 -84 101 -210 169 -297 92 -120 251 -245 406 -320 l72 -34 0 -113 0
-112 -287 -88 c-158 -48 -314 -100 -348 -115 -136 -63 -264 -191 -334 -336
-63 -128 -71 -179 -71 -438 l0 -227 1440 0 1440 0 0 213 c0 117 -5 240 -11
273 -41 226 -218 444 -427 529 -31 12 -180 60 -329 106 l-273 83 0 112 0 112
93 47 c168 86 296 191 401 332 65 87 144 234 166 309 12 41 13 42 67 47 160
17 299 163 311 326 7 107 -23 194 -94 270 -52 57 -140 111 -179 111 -8 0 -18
7 -21 15 -3 8 9 117 26 242 24 167 31 246 26 295 -19 205 -144 404 -314 501
-45 25 -53 33 -47 51 29 100 45 177 45 218 l0 48 -732 -1 c-682 0 -738 -1
-804 -19z"/>
</g>
</svg>
